<svg width="283" height="52" viewBox="0 0 283 52" fill="none" xmlns="http://www.w3.org/2000/svg">
<g clip-path="url(#clip0_87_31)">
<path d="M47.2299 23.1573C46.02 13.6933 37.492 5.47733 27.8374 5.43226C21.3096 5.36986 14.7819 5.41146 8.25763 5.38373C8.07569 5.38083 7.89506 5.41487 7.72666 5.4838C7.55827 5.55273 7.4056 5.6551 7.27791 5.78474C7.15023 5.91437 7.05017 6.06856 6.98379 6.23798C6.91742 6.4074 6.88611 6.58853 6.89176 6.7704C6.91603 8.07733 6.96803 11.1973 6.96803 11.1973C6.96803 11.1973 19.2054 11.1973 25.3414 11.2493C31.304 11.024 36.4 13.4888 38.9411 19.0251C42.8099 27.2411 39.0451 37.0517 30.0318 39.5165C25.5494 40.9691 20.2072 40.6779 16.5464 37.4365C14.4664 35.5541 13.5443 33.1691 13.5616 30.3853C13.6136 27.2965 13.6136 21.1536 13.6136 21.1536C13.6136 21.1536 19.7982 21.0773 22.4779 21.0773C25.1854 21.0149 27.879 21.9128 29.5776 24.1211C31.2 26.2773 31.9315 29.4701 31.2174 32.0701C30.1774 35.6235 27.8235 37.7832 24.0899 38.4557C26.2531 38.5944 28.3331 37.9531 30.264 37.0413C36.0326 34.268 38.0883 28.0696 36.2718 22.5645C35.8398 21.1322 35.0874 19.8169 34.0718 18.7183C33.0561 17.6198 31.8038 16.7668 30.4096 16.224C28.7411 15.5848 26.9648 15.274 25.1784 15.3088C19.7912 15.3365 9.62003 15.3608 7.39096 15.3643C7.2748 15.3652 7.1637 15.412 7.08189 15.4944C7.00007 15.5769 6.95416 15.6884 6.95416 15.8045C6.95416 18.7339 6.95416 35.6096 6.89176 44.4392C6.89176 45.7392 7.4811 46.2072 8.6251 46.1899C15.3886 46.1483 22.1451 46.1899 28.9155 46.0616C40.0435 45.2469 48.88 34.2091 47.2299 23.1573Z" fill="#3232FF"/>
</g>
<path d="M60.466 42.42C58.478 42.42 56.77 42.028 55.342 41.244C53.914 40.432 52.808 39.34 52.024 37.968C51.268 36.568 50.89 34.972 50.89 33.18C50.89 31.472 51.324 29.918 52.192 28.518C53.06 27.118 54.222 25.998 55.678 25.158C57.134 24.318 58.758 23.898 60.55 23.898C62.846 23.898 64.75 24.57 66.262 25.914C67.774 27.258 68.796 29.106 69.328 31.458L55.006 36.498L54.082 34.188L65.842 29.904L65.002 30.45C64.666 29.526 64.106 28.728 63.322 28.056C62.538 27.356 61.516 27.006 60.256 27.006C59.192 27.006 58.24 27.272 57.4 27.804C56.56 28.308 55.902 29.008 55.426 29.904C54.95 30.8 54.712 31.822 54.712 32.97C54.712 34.174 54.964 35.238 55.468 36.162C55.972 37.058 56.658 37.772 57.526 38.304C58.422 38.808 59.43 39.06 60.55 39.06C61.306 39.06 62.034 38.92 62.734 38.64C63.462 38.36 64.134 37.996 64.75 37.548L66.556 40.446C65.688 41.034 64.708 41.51 63.616 41.874C62.552 42.238 61.502 42.42 60.466 42.42ZM88.1243 40.404C87.3403 41.02 86.4023 41.51 85.3103 41.874C84.2183 42.238 83.1263 42.42 82.0343 42.42C80.1303 42.42 78.4643 42.042 77.0363 41.286C75.6083 40.53 74.4883 39.48 73.6763 38.136C72.8923 36.764 72.5003 35.154 72.5003 33.306C72.5003 31.458 72.9203 29.848 73.7603 28.476C74.6283 27.104 75.7483 26.054 77.1203 25.326C78.5203 24.57 80.0183 24.192 81.6143 24.192C83.0143 24.192 84.2603 24.388 85.3523 24.78C86.4723 25.172 87.4243 25.704 88.2083 26.376L86.2763 28.896C85.7723 28.504 85.1563 28.154 84.4283 27.846C83.7003 27.538 82.8743 27.384 81.9503 27.384C80.9423 27.384 80.0043 27.65 79.1363 28.182C78.2963 28.686 77.6243 29.386 77.1203 30.282C76.6443 31.178 76.4063 32.186 76.4063 33.306C76.4063 34.37 76.6583 35.364 77.1623 36.288C77.6663 37.184 78.3663 37.898 79.2623 38.43C80.1583 38.934 81.1803 39.186 82.3283 39.186C83.0843 39.186 83.7703 39.074 84.3863 38.85C85.0303 38.626 85.6043 38.318 86.1083 37.926L88.1243 40.404ZM101.021 42.42C99.0326 42.42 97.3246 42.028 95.8966 41.244C94.4686 40.432 93.3626 39.34 92.5786 37.968C91.8226 36.568 91.4446 34.972 91.4446 33.18C91.4446 31.472 91.8786 29.918 92.7466 28.518C93.6146 27.118 94.7766 25.998 96.2326 25.158C97.6886 24.318 99.3126 23.898 101.105 23.898C103.401 23.898 105.305 24.57 106.817 25.914C108.329 27.258 109.351 29.106 109.883 31.458L95.5606 36.498L94.6366 34.188L106.397 29.904L105.557 30.45C105.221 29.526 104.661 28.728 103.877 28.056C103.093 27.356 102.071 27.006 100.811 27.006C99.7466 27.006 98.7946 27.272 97.9546 27.804C97.1146 28.308 96.4566 29.008 95.9806 29.904C95.5046 30.8 95.2666 31.822 95.2666 32.97C95.2666 34.174 95.5186 35.238 96.0226 36.162C96.5266 37.058 97.2126 37.772 98.0806 38.304C98.9766 38.808 99.9846 39.06 101.105 39.06C101.861 39.06 102.589 38.92 103.289 38.64C104.017 38.36 104.689 37.996 105.305 37.548L107.111 40.446C106.243 41.034 105.263 41.51 104.171 41.874C103.107 42.238 102.057 42.42 101.021 42.42ZM118.053 24.612L118.389 28.854L118.221 28.182C118.781 26.894 119.691 25.872 120.951 25.116C122.211 24.332 123.667 23.94 125.319 23.94C126.971 23.94 128.315 24.43 129.351 25.41C130.415 26.362 130.961 27.608 130.989 29.148V42H127.041V30.534C127.013 29.582 126.733 28.812 126.201 28.224C125.697 27.608 124.899 27.3 123.807 27.3C122.799 27.3 121.889 27.58 121.077 28.14C120.265 28.7 119.621 29.47 119.145 30.45C118.697 31.43 118.473 32.564 118.473 33.852V42H114.567V24.612H118.053ZM139.252 16.968H143.158V24.696H147.946V27.762H143.158V42H139.252V27.762H136.06V24.696H139.252V16.968ZM155.942 24.612L156.32 29.652L156.11 28.98C156.558 27.916 157.202 27.02 158.042 26.292C158.91 25.536 159.806 24.962 160.73 24.57C161.682 24.15 162.508 23.94 163.208 23.94L162.998 27.804C161.682 27.72 160.52 27.972 159.512 28.56C158.532 29.148 157.748 29.932 157.16 30.912C156.6 31.892 156.32 32.942 156.32 34.062V42H152.456V24.612H155.942ZM174.85 42.42C173.226 42.42 171.742 42.07 170.398 41.37C169.082 40.67 168.032 39.648 167.248 38.304C166.492 36.932 166.114 35.266 166.114 33.306C166.114 31.374 166.52 29.708 167.332 28.308C168.144 26.88 169.222 25.788 170.566 25.032C171.938 24.276 173.436 23.898 175.06 23.898C176.684 23.898 178.056 24.276 179.176 25.032C180.296 25.76 181.15 26.628 181.738 27.636L181.486 28.308L181.864 24.612H185.476V42H181.57V37.464L181.99 38.472C181.878 38.752 181.626 39.116 181.234 39.564C180.87 39.984 180.366 40.418 179.722 40.866C179.106 41.314 178.392 41.692 177.58 42C176.768 42.28 175.858 42.42 174.85 42.42ZM175.9 39.186C176.88 39.186 177.762 39.004 178.546 38.64C179.33 38.276 179.974 37.772 180.478 37.128C181.01 36.456 181.374 35.658 181.57 34.734V31.332C181.346 30.492 180.954 29.764 180.394 29.148C179.834 28.504 179.162 28.014 178.378 27.678C177.594 27.314 176.726 27.132 175.774 27.132C174.738 27.132 173.786 27.384 172.918 27.888C172.05 28.392 171.35 29.092 170.818 29.988C170.314 30.884 170.062 31.934 170.062 33.138C170.062 34.258 170.328 35.28 170.86 36.204C171.392 37.128 172.106 37.856 173.002 38.388C173.898 38.92 174.864 39.186 175.9 39.186ZM192.992 42V11.634H201.266C204.262 11.634 206.81 12.096 208.91 13.02C211.038 13.944 212.746 15.162 214.034 16.674C215.322 18.186 216.26 19.866 216.848 21.714C217.464 23.534 217.772 25.354 217.772 27.174C217.772 29.47 217.366 31.528 216.554 33.348C215.77 35.168 214.678 36.722 213.278 38.01C211.878 39.298 210.268 40.292 208.448 40.992C206.656 41.664 204.752 42 202.736 42H192.992ZM197.066 38.094H201.938C203.618 38.094 205.158 37.842 206.558 37.338C207.986 36.834 209.218 36.106 210.254 35.154C211.318 34.202 212.144 33.04 212.732 31.668C213.32 30.268 213.614 28.686 213.614 26.922C213.614 25.046 213.306 23.408 212.69 22.008C212.074 20.58 211.234 19.39 210.17 18.438C209.106 17.486 207.902 16.772 206.558 16.296C205.214 15.792 203.8 15.54 202.316 15.54H197.066V38.094ZM219.74 42L233.012 10.374H233.264L246.494 42H241.832L231.92 16.758L234.818 14.868L223.73 42H219.74ZM227.51 30.492H238.808L240.152 34.02H226.334L227.51 30.492ZM248.473 26.838C248.473 24.738 248.865 22.764 249.649 20.916C250.461 19.04 251.581 17.388 253.009 15.96C254.437 14.504 256.075 13.37 257.923 12.558C259.799 11.718 261.815 11.298 263.971 11.298C266.099 11.298 268.087 11.718 269.935 12.558C271.811 13.37 273.463 14.504 274.891 15.96C276.347 17.388 277.481 19.04 278.293 20.916C279.105 22.764 279.511 24.738 279.511 26.838C279.511 28.994 279.105 31.01 278.293 32.886C277.481 34.762 276.347 36.414 274.891 37.842C273.463 39.242 271.811 40.348 269.935 41.16C268.087 41.944 266.099 42.336 263.971 42.336C261.815 42.336 259.799 41.944 257.923 41.16C256.075 40.376 254.437 39.284 253.009 37.884C251.581 36.484 250.461 34.846 249.649 32.97C248.865 31.094 248.473 29.05 248.473 26.838ZM252.673 26.88C252.673 28.476 252.967 29.974 253.555 31.374C254.143 32.746 254.955 33.964 255.991 35.028C257.027 36.092 258.231 36.932 259.603 37.548C260.975 38.136 262.459 38.43 264.055 38.43C265.623 38.43 267.093 38.136 268.465 37.548C269.837 36.932 271.027 36.092 272.035 35.028C273.043 33.964 273.841 32.746 274.429 31.374C275.017 29.974 275.311 28.462 275.311 26.838C275.311 25.242 275.017 23.744 274.429 22.344C273.841 20.916 273.029 19.67 271.993 18.606C270.957 17.542 269.753 16.716 268.381 16.128C267.009 15.512 265.539 15.204 263.971 15.204C262.375 15.204 260.891 15.512 259.519 16.128C258.147 16.744 256.943 17.584 255.907 18.648C254.871 19.712 254.073 20.958 253.513 22.386C252.953 23.786 252.673 25.284 252.673 26.88Z" fill="#3232FF"/>
<defs>
<clipPath id="clip0_87_31">
<rect width="52" height="52" fill="white"/>
</clipPath>
</defs>
</svg>
