<svg width="52" height="52" viewBox="0 0 52 52" fill="none" xmlns="http://www.w3.org/2000/svg">
<g clip-path="url(#clip0_309_5)">
<path d="M47.2299 23.1573C46.02 13.6933 37.492 5.47733 27.8374 5.43226C21.3096 5.36986 14.7819 5.41146 8.25763 5.38373C8.07569 5.38083 7.89506 5.41487 7.72666 5.4838C7.55827 5.55273 7.4056 5.6551 7.27791 5.78474C7.15023 5.91437 7.05017 6.06856 6.98379 6.23798C6.91742 6.4074 6.88611 6.58853 6.89176 6.7704C6.91603 8.07733 6.96803 11.1973 6.96803 11.1973C6.96803 11.1973 19.2054 11.1973 25.3414 11.2493C31.304 11.024 36.4 13.4888 38.9411 19.0251C42.8099 27.2411 39.0451 37.0517 30.0318 39.5165C25.5494 40.9691 20.2072 40.6779 16.5464 37.4365C14.4664 35.5541 13.5443 33.1691 13.5616 30.3853C13.6136 27.2965 13.6136 21.1536 13.6136 21.1536C13.6136 21.1536 19.7982 21.0773 22.4779 21.0773C25.1854 21.0149 27.879 21.9128 29.5776 24.1211C31.2 26.2773 31.9315 29.4701 31.2174 32.0701C30.1774 35.6235 27.8235 37.7832 24.0899 38.4557C26.2531 38.5944 28.3331 37.9531 30.264 37.0413C36.0326 34.268 38.0883 28.0696 36.2718 22.5645C35.8398 21.1322 35.0874 19.8169 34.0718 18.7183C33.0561 17.6198 31.8038 16.7668 30.4096 16.224C28.7411 15.5848 26.9648 15.274 25.1784 15.3088C19.7912 15.3365 9.62003 15.3608 7.39096 15.3643C7.2748 15.3652 7.1637 15.412 7.08189 15.4944C7.00007 15.5769 6.95416 15.6884 6.95416 15.8045C6.95416 18.7339 6.95416 35.6096 6.89176 44.4392C6.89176 45.7392 7.4811 46.2072 8.6251 46.1899C15.3886 46.1483 22.1451 46.1899 28.9155 46.0616C40.0435 45.2469 48.88 34.2091 47.2299 23.1573Z" fill="#3232FF"/>
</g>
<defs>
<clipPath id="clip0_309_5">
<rect width="52" height="52" fill="white"/>
</clipPath>
</defs>
</svg>
